<svg xmlns="http://www.w3.org/2000/svg" viewBox="0 0 1400 700" role="img" aria-labelledby="title desc">
  <title id="title">MEG experiment banner</title>
  <desc id="desc">Abstract MEG scanner room illustration for the booking banner.</desc>
  <defs>
    <linearGradient id="room" x1="0" x2="1" y1="0" y2="1">
      <stop offset="0" stop-color="#115e59"/>
      <stop offset="0.56" stop-color="#0c766e"/>
      <stop offset="1" stop-color="#1f8f82"/>
    </linearGradient>
    <linearGradient id="coil" x1="0" x2="1" y1="0" y2="1">
      <stop offset="0" stop-color="#e7fffb" stop-opacity="0.95"/>
      <stop offset="1" stop-color="#b8e4dc" stop-opacity="0.78"/>
    </linearGradient>
  </defs>
  <rect width="1400" height="700" fill="url(#room)"/>
  <path d="M0 520 C270 440 420 460 690 525 C990 596 1125 520 1400 470 L1400 700 L0 700 Z" fill="#083f3c" opacity="0.28"/>
  <path d="M182 138 L617 98 L1220 146" fill="none" stroke="#d8fff7" stroke-opacity="0.17" stroke-width="5"/>
  <path d="M224 578 L625 430 L1186 584" fill="none" stroke="#d8fff7" stroke-opacity="0.13" stroke-width="5"/>
  <g transform="translate(880 112)">
    <circle cx="210" cy="210" r="166" fill="none" stroke="url(#coil)" stroke-width="46"/>
    <circle cx="210" cy="210" r="93" fill="none" stroke="#effffb" stroke-opacity="0.42" stroke-width="16"/>
    <path d="M70 318 C150 374 265 383 356 309" fill="none" stroke="#ffffff" stroke-opacity="0.34" stroke-width="22" stroke-linecap="round"/>
    <path d="M210 48 L210 11 M372 210 L411 210 M210 372 L210 409 M48 210 L9 210" stroke="#ffffff" stroke-opacity="0.3" stroke-width="13" stroke-linecap="round"/>
  </g>
  <g transform="translate(616 374)" opacity="0.72">
    <rect x="0" y="0" width="418" height="30" rx="15" fill="#d8fff7"/>
    <rect x="92" y="30" width="230" height="35" rx="17.5" fill="#9cd6cc"/>
    <rect x="148" y="65" width="120" height="120" rx="24" fill="#d8fff7"/>
  </g>
  <g fill="none" stroke="#eafffb" stroke-linecap="round" stroke-opacity="0.33">
    <path d="M116 238 C174 186 248 185 306 238 S438 290 496 238" stroke-width="14"/>
    <path d="M130 308 C188 256 262 256 320 308 S452 360 510 308" stroke-width="10"/>
    <path d="M146 374 C204 322 278 322 336 374 S468 426 526 374" stroke-width="8"/>
  </g>
</svg>
